<mxfile host="65bd71144e" pages="1">
    <diagram id="6itaSXMCU1YtvEYhpMld" name="Page-1">
        <mxGraphModel dx="369" dy="568" grid="1" gridSize="10" guides="1" tooltips="1" connect="0" arrows="1" fold="1" page="1" pageScale="1" pageWidth="827" pageHeight="1169" math="0" shadow="0">
            <root>
                <mxCell id="0"/>
                <mxCell id="1" parent="0"/>
                <mxCell id="75" value="" style="shape=image;verticalLabelPosition=bottom;labelBackgroundColor=default;verticalAlign=top;aspect=fixed;imageAspect=0;image=data:image/png,iVBORw0KGgoAAAANSUhEUgAAAGQAAABkCAYAAABw4pVUAAAbnklEQVR4nO2dXa9s6VbXf2M8L3PWWnvvPn0k4IV+EANGsTGeE4OcSPAKLjRciE0Ec0IC4YjiuYBoYpDYBk0EDBAgMSZ+AK/8IN6ZiHhOd++1q2rO52V4MZ45q9bubiJnr7W7O66R7L1eqmbVrGc8z3j5j/8YC57kSZ7kSZ7kSZ7kSZ7kSZ7kSZ7kSZ7kSZ7kSZ7kSf5/lN/4mb9hv/OL37DP+z4eSuTzvoHvVf75T/2Q3ST4yotbnj1/Qc6RrMbf+eU/+tJ+JvgSKuSD99+zlCempHz48hWHKXO4OfCVFy/48MPvMN/M/Mn/+i7vf/DfvnSfDUA/7xv488hv/swP2zTN9N5ZayeogsH5XLBW0BQorZOnxG/+3N/6UpqxL8Uu+uD99+w7H7/iK++8w+2UWWshBKWUSlQFVf7i973g1VowM46nMzeHTFkr7z5/9qUyY1/4E/Lr/+Cv21ovm11jIIQABjHo/gkWA0HAQBFSiqxrZe3wr//hD9sH77/3pTgx8fO+gc+SD95/z4wACOdlYZ7n/TEze+1ov34AjLIWzMAMbqbE7e0NH7z/nn3RfcsXTiEfvP+elS5YN0x9t8/TxFIKZp0guJkCuilrOTPngLVOjIHzaSWFSEoJ7AQ09zWt8/LVwr//ua9bresX1ul/oUzWr/7UD1mKiZwiHUPHzhdABcpaOR4XBGU7Fb13RIRaKirC6bwSkiICGIARVDDr7vS7IRr41Z/6K19IE/aFOCEfvP+epejmCQxrRm+doL7oBojAuhaOYuSUqLWhIuQ47a+TUsJwO1WrnxiAnBPH48o0fu698+6zmd/+5tftf/zpHd/+T//9C3NaPvcb+bW//4P2l3/gq3z86oT1AFQM5bSuTDkz5wy9c1pOmEHtcDPP5KTEGHbFpJy5vc28Op6ZUqSsld47OWeOpxMxBL57d4eizCmxlMKL5zeggqaJD//0O18IM/a5maxf+ckftN/+5t+2v/DiFmCYoQ4oUQNTDMQQURFqN0SUGCOHPPHqfCbEQG8dFUFjoLbqHygIy1I+830F3P4BtRm9G4esvHjnln/1jz7/3OVz2RH/4ee/ZikEmnXoxjwnjqdC65e7MjOsd6ZpordGqQ0D5pQ4LkdePH9GrY1pmljWhRAiN7czGpTjyztXlAgdo5shDf7k45fMMTJPmVIKGoTnz2/Ha67cHiY+/OiO42nh/X/7+ZyWt3pCfu2n/5r9/i/+qN3MaVfG4TABwnldoF82aO/16kq5+h9Uld5cYa03f0zcNwCep1xJSpGlVub0SZeZUmIplRgjp2VFVPnKu8/49Z/+q5/LaXlrCvnDf/YN+0vf/wINAiKouHnxxRNElZiVoNCa23+j01sDgUYDhJwDoHSMECKY0VslANaNqB4yL2tBow4duypv53nfCL0b0zQTgyIq9N5orZNiQAy++vzAH3zrx+yDn327CeVbUcjvfPNrRu/03gl62b0p+o4txXd2THGsXXeThWFi1NYIRGJQamvMU6L3TsoJERnhLWBGCMr5vAIyfIVQahsPd2priCgGmPnjISjrWhFcmRiICDlnnj+/eRtLtMtbUUieMr1B70ZtnRQjooKZr2RK4TOvbWPXNypBobZGDoHz+Uy7MnGX1/DTMOUEQMyJGCN9mDYA633/vrZOa511XVH1zD5oHI9Var1c9zbkrSik43Z9W79SKwaEFJimAHR6bWgzejOWtbHWjpIQE1QVlYAJxBCo5s8LNIIIeZ5YasNao9XO0kZyiCK9QmsEDUQNlNLpwO1hYl1WOkLvndtnB1ClWUWnTEqJUtyMvU15az5EGGAgvgvp9pqrdlnryum87D/3buQQyFGvTlTaHz+vhSDKspzvv98IbZdz3a/bZPtJgz+ntU5rBig6TKrq5b7++F/8vbfmR96KQrbw05qBuAq6mStGA4jfRsMXcq2NpIEUFVXh3BpqgnXPOVJU1qtFHm4HTJDWmNOENJBulFZIMWLjKRqFpbqPiUEI0ikDdslJiSrQKyk7AjDNmfwW8YxHV8gf/NKPGvhO770ThiOvtdOvzEGIwXOGZuQYyclvLajnJEvt+3Xuil3mHEkpAoJdvV6t903NUgoKlNrJMbCWS/I4z4mvvPPs3vNT/my/9pjy6AqRgcyqCiEGQtiW0mi9ewKBo7qYocFPlKC03mndEBFEYW0Vs8ZaqoON1XOVWhsxpnufprZGN0PVI7MYFAkeRcUQySlSa8cQDvOMmXE+r1TzqG49L2A2lP325NEVMo+jj3r+YeY6iCE4SNjNwcOhEGDf/kFlKFBQFQT3O6VU0qgYrqUSY6Dj5k5DYMppD5uDBKwbCpiAGARVWrcRbTmgWWv1YMOgW6PXDiaUUnmb8ugKWXsj5UQMgTY+XB/h1nlZKMtKzBcnHTWQosPvfnoE7Dr0FNKUAT8F/rV7uBrCvfD24r6F8mnR0lD86bywrG0PlQFqv//83/r5r70Vx/7oCgnDJFmHnBJgfHT3CoA0ZZIKfV2pwJTjODHmDh086jFQ3LcAtNaY88SUJsepgmK1Ulul00GhWSNIpLRGSgETxarR6YSgBBU3mbUhGllLIaXsmTqKiBDTiMJ64DCnT/l0Dy+PqpA/+pUf9101CkUI9M4ltv/MEP9qMw4/sInKJRzt1+GssidxKUTmnCm1kEeIdH3dWiui6pVEHHIBOJ3Pw0T572vz37fe9jD6seVRFTIdMqhHtbU2VBXpMOXMuhaWdWVZCq30vSw7pUQIGZM49NhRVYZ1onY8iQzq0bJAnic0CGspnKvR6Ohm9hCW5q8vMSEGSETCgG1aIUZxWGYttNqgVyS4b4kqtHUh6tuJuh7XZPVOHGbGzK4StMtuSykSRohbRqjae/PICtAQ9xPVDOK445iil2XVE0ZV3SM60YBq9MhrvFXtfeRA/ovTabm6FSHnRBgVxetcNWjgWNe3Vqh4VIWoKIpHVtYM64YEYUoRQQgi1BG6BhW6GefaXHFDed0MpJOmBPii6tXCiwa6dUQh5eQQvoENe+gv1d3Zm1+rQBioASKsq+ckvXU6tm+iNmowvTRqbfzHt8AhflSFiF0gCIlji+1fFBUFDXTz9N2G7xAxNp+jI1SGrcauQ0m+e6132sDG1vOC5/uNbtXD7NYJou7sDQ+jxU9m7SPJ3E7u2BTNOtjIk1y7fo0+fqD1dsDFK1R2Pa/3sKWUM+G15GvDvADiQF63XXvt8PtYuNdFNHwCFNwiNBEGBC/U6iG5BAVhFMvcyZsZOac9ULgfTj+ePJpC/uu//EmTAL01rFbUoBRHXZflYpMdjR1mCyHh5kQxNASqVUBYS2WpxZUg0GsFs1EPMUQCS63YSATrWihlpRpoVBT15K91tHf6oJ2iiT5YKgHhndsbaEYQJYgiQ5ExRJQv8Qm5mdI9bAngeC6bD+UwkjuA87KiKiMqgqso1/OB4WwN37ka1E/dKEj9mbKvoVBrIahyrvdJEFv43Hvn5vkF0yqt3XuOyON79kdTyLoWardRRFL/J41qHQlKw2hjIUJUzuviACSNwBZibhitG3HFI6peKzlHztW8KHiFuMTxVUMgqhLV6MXDZOiklGgGiLNawlV+UXqnlk6Fq8V3pcToWNi/eeSS7qP6kG3neUnVTZEnagOG14ujN4xayz2jULuHy83c7hse3sYYWEtD9ZK8XV9n5vQgUUEQ2qAL+T2IBxOvSR7Y2CaqHgG2BjlnavXk8DA9Ltj4iArxWndUR22f3d68Vihy89O7Q+7jN0RNnk+ojGgLBKO3a2X5sRBG9bHf37RB/ITV2kgpOiosQttJ2tupu5jUaZqGiXVT6PfVsd7JOfp7bJc9ojxupj7nPYIBj3AOs9N+wBCxPWEUhCm6X9kWQYCQIirKHDOB5MS55syRNBgmW/iqAxUOKXm9YzsVqoQYseYmTukgXkvf6/LbaW0NzFjX6uFybcQYCaLQQe1x/cijKOS/fPsnzEnO/vK3h/n+E+TTv19rYSmeQW/Fq1bbXtRq9Hv4lQZhnrNHZ+LU7GVZ98djdEAw50jvndrqrnSAw2hxmKfLRgBX7DT7e75eD4nhcSGUxzkhZuQ5QwiUpXJazmhSWjNyEJZlRczRW6/cudPuBCQkltruV/wEGIWtzRd4chhGnuCJZKPT1R9LMVNLZTONnlN63aQ0mA4T59KxdSWnyPF0Yp4mQnTF5ik7KjywmmaNTkeT8u/+8d98NMP1OAq5Cg9b79zc/tncps2H9NcMdG91R4pL7aSr3akhEHO6hKxXJ6d3Q0Uo63oPQxO5XC9Dibsjt8v7x8l9hgZ1jGxcE6I6lP/ZMPUby6MoJGrAivOvelnR7mbjdppY1oJ1QAPrFecpx8TNlJysZo7OavCIrKyFFJUgnjEr3mLAyEVqr4QgTCm5L1H3vvOUCKqs1evpz+bolccRQVkrhKQsy0q6alWge9guQenNq4e9dvraSRqZ8+PVRh4fOhEPccva7p0cs74vAlwoOVPSe9AJIg4a4v2FMsDCC27rDMiN13s+nqlrIQThvJQ9qYzBM/UY+AT5zSGUjCL38hInbCtrq86qxEsHjxlpPYpCRHTf6agyT5lW6uiI8tYCgLUMZqCIRzGMzFzD4P9usMiIlvBDIaIOnTD6DQ1qqcQQeHV0flaIaZiduCssxeh5iwmYcHOYmae8+w2vyStrqdANVc9hMNt9l0a9V+x6aHlwhfz+L/2YhRgQhN4KOrqdzAxNijXf6SqBeUq+gwf5WfG8JeXIqCTtEdaeOQ8qbxsnQkSG0/aTsKyF1oVWOyF46bYUj85CDGCKdTAU692heFUMo20Icxj1EdxnMFKQEVuDwG/9k8epsT+qyWpthIlXG+q0rLzOJCy1XVuzPdEToJaG3E/DATcnbRSyjqczMQZHhEctJcTIfHMAfMGdB2bU15LItXZySnz00UtPBA1iDNzc+rU53fcXZTQDPVbG/uAKsd5AlLVWuo2KoXRqL6gKOiWyOPwRRhlVVDFzxVjr9L4p5drn7N8RhgmS3lFxaP68rqgoIUy02mhl4ZCd25uGSerWScGIdIQNVnez2YbjbrWjCCJCV2NtjfOI1mrvvDqdiSk+mtl6hBNytQPr6O8ASin7yYhR90YbMyO+bpf7fWJDq5Vw9XAb4OK9JHFc/+47t7w6nfbfv86rKqNvxGXDty7vtZZK78a6XvjFU06kUWZurZNj9DLAI8jDK0S8p6NZo/RG650YMq15PWQeDEOr5jyq5rCHWWfOCVGh0dAggwrUP5Ed995ZS0OCm6mc4oDH4eaQqKXRBqTSu7e05ezt1gYgwvm0sG0ewSc/5CnR6aMn3tgmQ4gqtRkvbg/e3INxM8zhQ8uDK2TfN1fkgmV1OCPGwLKWHaoA39lB1TGp2ogpDOTXs2x/jpJTvjoRntSpKnb1Zq33vZ2tFS/rdvMmIRlBwka8vpZSG/OU6eYK3E6yqpJjIKe4J6U5RdaRF/3uL//dB3fsD6qQ//ztn7Cggd77hdaP7IxAVaF3I6W0T/KREVrWEWaCBwJxBwN1r7W7XCCUXtuOeekgK7Tmp6sNwBEu6c95XSm1osG5WTFGRJX1vAJOwrAxiACg1krQgKoybXlIiJTiKPIPfN+Lh1y+sV4PKFGULoJh5GnybBvZEzERpdY2WPB+Klrzkmwcdr03o20U0e41EAFSGExGhLLUQci2kSTC6ENjXStzzu6D+laLuURmKQZ01Eg2xksbDtuakUJAgLV4fiRRSMOB2SBXTPM0orGHt/gP+or9EyFl29/BBgVHxO7hQwDIhadrZp/AtMyMMtjspVa2qQ/d+li84nnI8BdeHXQI/eYwsSyVEILTklQ/cZ8hCutSuLmdBlwzNpEZL1++ZFlW7l4dP1HCtfbwqciDKqT1jlUvg8aY9hpQ693rC6qUpTmJIAXyFPxDNXM+tQSaCXGUcDuCoaNp09sEckpU615SRXd2Sc6jKceGOWsGwXlgG79+r80blHY/rG5mnJeKcZmkEkOkNOG8NgiOHjx79szvpTZK/ewBBd+rPBL83mjWycPuns8L0xSHKTLmKTuMURvTnN00BD81W/h6TZZr1geNx+GUKA5vtO7FI3f2dg8r09fID2ZGt40lr/trr1dTH1qtuwlMKTGnxDy5/5sn5wqfT2diUE7nhSknfvsXf/RBj8mDKkQG/pRyQq06vKEOP/TaOBxmzqWwVq/mrbVSSyPHSBTvpLXeKK1hDaIIap0oyvHkbWhNoJp5CGtDcQi9K7LVPQRiCqNv0GHzENR5u/hpsDEuaF0qN4cD8zSRcyJF9aKUQO3Vk1ncwTczqjV66bx4fktBePd2/ozV+N7kwRTyh9/6hqnI3tWEuaGI6vT+8/m82+AYg0MYW3gZZKd8rmshBt2rd7V3N4XITsjOKaGq3N7MhKukspvnFNtJm+IF3ui9D/8T9xYJGKdFPDOPIThUE5RSCmttrGtxTKwZz25mlrU4j6u0R+H7PphCRJziOeXEaSCuex+0Nd+VZsTgQ2Tqeim1isruxo3ui7qFnr0N5XRqr9gWoZnRuzNCtnXRILTW9gCgXrENS2k7+zHHCz6lKpxPZy9KRh1lgWEaB9wfUvD2us2Jizf5lOMlm38oeVCTFUbxp7RKGwhrawUkIDrwnytTEdQbPQ1hqcse7gaNxByJOWMjRxEBa33/mufD4FsFQnTu7pyz+45BuN6+iijT8AXdOkstWDcfYIDss7mc/d4ppRA0UFcnaE8hUmtlOZXhc5zcXcpKuEpyH0IeVCG1deY87X3k7pjdLOzOMfsH+LTeveummLJujytR9ap9QKjN/VPHvG4uOhp7/PrXEdq6VpalUGslp3jZ6bj53IgM7bXC1SZrccXkMS0ixkhvndtnz8g583vf+vEHc+wPppAYfaxet84hTRADZdjbEDw8NetE8Rzi5tbn7+YUEYwUMk7bVWJSEOOC3HsUlWIkjs6nu5evuDufCBpRBjtlRGq1e8v1RvHpciFU1dr26mTOGTNIYxDa+VRAEh0/uajnVjtScJX619qppVJL5fnNw0HxD3tClkIbTl1CxEzuTURwcWd9Op93RLes7idEfXFCdIbKlmNsaGxMl1Lt3SvvU3x1PAIwTV4Iu7mZWeuKjpItjFKsuu8yMwc4h2wnd5OtobQNRAG8GjlNmRgS85QRlX22Sp7zXix7CHkQhfzOL3zdPvr4DgkBjU5M0F6Z57STq8PInj8+ntlpPybU4vNKBK9fV7NRCzFah7UVlsUhFAxizrTWvfSqwlpW7o6n0Ym7BRHOlt9IFG0fWrCR9nww5qvjmd6d0+uhstKK1222LFyCo7utdZp5vzvdazKlLMQ577jdQ8iDnDUNgXVETf55vdt1a7ZJc4KX/ug0Km2qngwCo59vEx+5MQJiQgisbXW0dQ+TlZvZ+xT3Wvc+hlRQCR72Dl8SVOhs4zxc2TkH1r35tENQh+03XnBwpaTscL6KK3kLPHKMdByI1AccLvAgJ0Rwh+foqI4xFv4BRBw+R0Ci7vMQZUAUMBb/M7pcQ0i0QVDAvOFn2oYqd9u5J1tT6eUV3XdtcEurTlzYHLpvHDeTu8URvBYfI4fDiNgE8hz9c4x7bGXM6kI4fnRHjpHfeP9HHsSxP4xCmheMYvSm/7UWRLdIC1IIXueofQ8/NTiZ2jBKLVwT0oXRQ04nBrf/05w5rSu9eWfsBnmkFHaIxkQZ5a4dQJRN9SYsaxn9JtuOHj3tI185XzUS5Zx5/uIWeqMuhTQn5jnRWufdd1+AGSlnDjc3LKcT3//Ow2TsD4z2bqMqLgHJfJi4e3Xcn3M6r/euMWzw3Twh/DTubAqBNrqvVD1knqe0Y1fTKC7RG2FMM/Uau79eCA6HeIb/yXaE7WQF9XYJVeF4WjgeT3vBzeey6N5GEWPYYRuzxvQ6f/l7lAdRiI0PFKeZ01oGwnuViYtAg5Azhzmz1q1D1msQvRo0cec/VBlVnUraOzeHmZfnIzELGiOl26hXcG+qXOudiHkHlng855OvwdsXZH9fgE7nfF4czu9O3FMZg86WQqud06uVMEJzTyJX0pzQ5H5KkvgkiPbpOcyfV95YIX/8Ty9lzHVZ9lDzWvL/Yza7nNe9TFt79yGZMVCbT3aTUQO5JlK0dtVkc48ZaSzrQimNZa3U2kkp0rt9IkwNKrx6eSKm4ADncP5TihxuJ28aKm17YY6n8z5mVmCfrfUQ8sYKaa3tNlwGi1AkgEQYpdTltHhyWAqHm5k+hslYZ5iTAMHLu+GqZNvb/eLtNCVUfHTGvvSjX2Oe8sC/3Gcc8oSY5wsqgqnttNbN1FljDP0P9EHAO59XXt2dCDmwtoZqopZyobeKsx5DSDt/rKwLtTR+71fevMb+xgoJQYkpcpgHkXorqY65FwakmLwhPw27PxautboXkIIo7YpVvhWTPplWOrW09T7ygcCrl077qa3tr7/5hW6GpkiO7huCyr35wBgcT2e6eI96WSsSHd/a7iGE6ANu8D8QoKL7S/Ta91D4+QMMqHljheSUOZ4Wp2XKGLf6Wqnz0ytrHgm11im1ee8fyqmW0bjvoza2pZNtocfPtXVqb/tiXLMhvSNuGzhwkaBx8MDCZfAMrp9nt7dOvghKXdoY9WSU5XTB2MZmq1dm8nR3Rw6BqD5W9k3ljRVyLoXz2pjniZScLbIxNKKKT/+x7jUOHbWQ0kZZ1jGhoA7dd4yPX56w5hFPTF42DSGSQ0RjBgTrDbOGii9aF7sH0cQU0EHG89p4paz+fbetmigsxUhTImIEjG7if2Ghd8p55fjxERMfilabcbg50DVSa6HXAup+c63NA5MHkDdWiHXfyf43oRr9MxBTHeHs+bQyH6bdLzuLse87djtdW8aP2b5De+v3Tp+q9xv+n+9+tP9u44D5TKyw41HbYzomODgQanvfYymFtqwgwnQzD8jNb/LZsxtUlfNpJefIV999Z0eI85Sdzpoip9P9yajfi7yRQn7rZ3/EgvqEnq3jtVqjKiznBVWP/4MG5sMN1juHQxy8Wu9eytE5WhElmDANyqZPmPaZuutSHF7p5TJ4RgTrUHshxcQyhgJ0a+QpkadECELt7cJMHIvYzf8GiTeQNlChjhkngrGuK5LCDomsy8o8z2iMYzJeG4WywM2zG+6OZ/IUOJ4Xfvdb33ijo/JGIMyrc+XD//kdnh0yH915ifbueMLyRLPAelqpBO4+PnHonmccX51JMXBcKkIjxdFocz5Tqpdr786FqCCaWcppn9OoYfXTqMppMbqdPLFsnbvTipiQ58zdeSWlxMfHldYbGldvgwjK+VRo5hDKcSm8PK4Yyp9+9yXvvnjB//7uS85r4WaevEUiCB8fF57dHniRZj66W/jobkFVeOcrz1k+PPLyuLBUpyg9f/44FNMneZIneZIneZIneZIneZIneZIneZIneZIneZIvmvxfbF30T3oS/SMAAAAASUVORK5CYII=;" vertex="1" parent="1">
                    <mxGeometry width="100" height="100" as="geometry"/>
                </mxCell>
                <mxCell id="74" value="&lt;font face=&quot;Noto Serif JP&quot; color=&quot;#990000&quot;&gt;馬&lt;/font&gt;" style="text;html=1;strokeColor=none;fillColor=none;align=center;verticalAlign=middle;whiteSpace=wrap;rounded=0;fontSize=42;" vertex="1" parent="1">
                    <mxGeometry width="100" height="100" as="geometry"/>
                </mxCell>
            </root>
        </mxGraphModel>
    </diagram>
</mxfile>